<svg width="19" height="18" viewBox="0 0 19 18" fill="none" xmlns="http://www.w3.org/2000/svg">
<path d="M8.40341 2.94721L9.02479 3.52998L9.6989 3.00911C11.4437 1.661 13.3031 1.49578 14.6658 2.08583C16.004 2.66526 17.0542 4.05438 17.0539 6.25518C17.0539 9.13199 15.1012 11.6325 12.9196 13.504C11.8505 14.4212 10.7764 15.1437 9.96753 15.6374C9.60495 15.8587 9.29785 16.0326 9.07127 16.1563C8.84671 16.0416 8.5439 15.8803 8.18699 15.6739C7.38133 15.2082 6.31157 14.5195 5.24682 13.6267C3.08427 11.8133 1.12109 9.31244 1.12109 6.25529C1.12109 2.05793 5.64618 0.36132 8.40341 2.94721Z" stroke="black" stroke-opacity="0.88" stroke-width="2"/>
</svg>
