<svg width="16" height="4" viewBox="0 0 16 4" fill="none" xmlns="http://www.w3.org/2000/svg">
<path fill-rule="evenodd" clip-rule="evenodd" d="M2 0C3.10459 0 4 0.89541 4 2C4 3.10459 3.10459 4 2 4C0.89541 4 0 3.10459 0 2C0 0.89541 0.89541 0 2 0ZM8 0C9.10449 0 10 0.89541 10 2C10 3.10459 9.10449 4 8 4C6.89541 4 6 3.10459 6 2C6 0.89541 6.89541 0 8 0ZM16 2C16 0.89541 15.1046 0 14 0C12.8954 0 12 0.89541 12 2C12 3.10459 12.8954 4 14 4C15.1046 4 16 3.10459 16 2Z" fill="black" fill-opacity="0.56"/>
</svg>
